<svg xmlns="http://www.w3.org/2000/svg" fill="#d1d5db" viewBox="0 0 50 50" width="150px" height="150px"><path d="M11 44c-3.309 0-6-2.691-6-6V12c0-3.309 2.691-6 6-6s6 2.691 6 6v26C17 41.309 14.309 44 11 44zM11 8c-2.206 0-4 1.794-4 4v26c0 2.206 1.794 4 4 4s4-1.794 4-4V12C15 9.794 13.206 8 11 8zM39 44c-3.309 0-6-2.691-6-6V12c0-3.309 2.691-6 6-6s6 2.691 6 6v26C45 41.309 42.309 44 39 44zM39 8c-2.206 0-4 1.794-4 4v26c0 2.206 1.794 4 4 4s4-1.794 4-4V12C43 9.794 41.206 8 39 8zM25 36c-3.309 0-6-2.691-6-6V20c0-3.309 2.691-6 6-6s6 2.691 6 6v10C31 33.309 28.309 36 25 36zM25 16c-2.206 0-4 1.794-4 4v10c0 2.206 1.794 4 4 4s4-1.794 4-4V20C29 17.794 27.206 16 25 16z"/></svg>